<?xml version="1.0" encoding="UTF-8"?>
<!DOCTYPE svg PUBLIC "-//W3C//DTD SVG 1.1//EN" "http://www.w3.org/Graphics/SVG/1.1/DTD/svg11.dtd">
<svg xmlns="http://www.w3.org/2000/svg" version="1.1" width="600px" height="654px" style="shape-rendering:geometricPrecision; text-rendering:geometricPrecision; image-rendering:optimizeQuality; fill-rule:evenodd; clip-rule:evenodd" xmlns:xlink="http://www.w3.org/1999/xlink">
<g><path style="opacity:0.988" fill="#bc5000" d="M 293.5,-0.5 C 297.5,-0.5 301.5,-0.5 305.5,-0.5C 336.717,12.9402 367.384,27.7735 397.5,44C 451.822,73.4928 505.822,103.493 559.5,134C 580.344,147.226 593.678,165.726 599.5,189.5C 599.5,280.5 599.5,371.5 599.5,462.5C 593.17,484.01 580.503,500.844 561.5,513C 488.472,556.186 414.472,597.853 339.5,638C 328.195,643.49 316.862,648.657 305.5,653.5C 301.5,653.5 297.5,653.5 293.5,653.5C 260.877,638.688 228.877,622.521 197.5,605C 143.84,574.839 90.507,544.172 37.5,513C 18.497,500.844 5.83031,484.01 -0.5,462.5C -0.5,371.5 -0.5,280.5 -0.5,189.5C 5.32244,165.726 18.6558,147.226 39.5,134C 113.73,90.7121 189.396,49.7121 266.5,11C 275.589,7.11497 284.589,3.28163 293.5,-0.5 Z"/></g>
<g><path style="opacity:1" fill="#fe9000" d="M 298.5,32.5 C 315.051,39.4407 331.384,46.9407 347.5,55C 412.636,89.0639 476.969,124.397 540.5,161C 553.456,168.951 562.29,180.117 567,194.5C 567.667,281.167 567.667,367.833 567,454.5C 563.629,466.055 557.129,475.555 547.5,483C 479.604,523.2 410.937,562.2 341.5,600C 327.839,607.332 313.839,613.832 299.5,619.5C 283.826,613.164 268.493,605.998 253.5,598C 186.386,561.613 120.053,523.946 54.5,485C 43.1075,477.621 35.6075,467.454 32,454.5C 31.3333,367.833 31.3333,281.167 32,194.5C 37.4338,179.061 47.2671,167.228 61.5,159C 114.285,129.2 167.285,99.8662 220.5,71C 246.191,57.3206 272.191,44.4872 298.5,32.5 Z"/></g>
<g><path style="opacity:1" fill="#fffdfc" d="M 144.5,182.5 C 248.915,182.004 353.248,182.504 457.5,184C 459.049,185.214 460.215,186.714 461,188.5C 461.667,280.167 461.667,371.833 461,463.5C 460.167,467 458,469.167 454.5,470C 350.419,470.995 246.419,470.662 142.5,469C 140.106,467.048 138.606,464.548 138,461.5C 137.333,370.833 137.333,280.167 138,189.5C 139.694,186.642 141.861,184.309 144.5,182.5 Z"/></g>
<g><path style="opacity:1" fill="#ff9412" d="M 158.5,203.5 C 215.167,203.5 271.833,203.5 328.5,203.5C 328.5,209.167 328.5,214.833 328.5,220.5C 272.166,220.667 215.832,220.5 159.5,220C 158.527,214.593 158.193,209.093 158.5,203.5 Z"/></g>
<g><path style="opacity:1" fill="#ff9413" d="M 347.5,203.5 C 378.5,203.5 409.5,203.5 440.5,203.5C 440.807,209.093 440.473,214.593 439.5,220C 408.835,220.5 378.168,220.667 347.5,220.5C 347.5,214.833 347.5,209.167 347.5,203.5 Z"/></g>
<g><path style="opacity:1" fill="#fe9101" d="M 158.5,237.5 C 252.5,237.5 346.5,237.5 440.5,237.5C 440.5,308.167 440.5,378.833 440.5,449.5C 346.5,449.5 252.5,449.5 158.5,449.5C 158.5,378.833 158.5,308.167 158.5,237.5 Z"/></g>
<g><path style="opacity:1" fill="#bd5100" d="M 288.5,307.5 C 320.082,307.564 332.582,322.897 326,353.5C 319.386,366.065 308.886,372.399 294.5,372.5C 279.302,371.465 269.136,363.798 264,349.5C 260.058,328.379 268.224,314.379 288.5,307.5 Z"/></g>
<g><path style="opacity:1" fill="#bc5000" d="M 197.5,308.5 C 209.293,307.902 220.96,308.735 232.5,311C 248.082,318.665 254.249,331.165 251,348.5C 246.343,361.488 237.177,368.988 223.5,371C 214.833,371.667 206.167,371.667 197.5,371C 196.667,370.167 195.833,369.333 195,368.5C 193.36,349.924 193.026,331.257 194,312.5C 195.376,311.295 196.542,309.962 197.5,308.5 Z"/></g>
<g><path style="opacity:1" fill="#bc5000" d="M 344.5,308.5 C 349.126,307.7 352.96,309.034 356,312.5C 361.25,321.336 366.75,330.002 372.5,338.5C 379.03,328.617 385.697,318.784 392.5,309C 396.505,307.902 400.005,308.735 403,311.5C 404.64,329.743 404.973,348.076 404,366.5C 402.588,371.291 399.421,373.124 394.5,372C 392.951,370.786 391.785,369.286 391,367.5C 390.667,356.5 390.333,345.5 390,334.5C 386.25,341.002 382.25,347.335 378,353.5C 374.254,357.393 370.588,357.393 367,353.5C 363,347.5 359,341.5 355,335.5C 354.667,346.167 354.333,356.833 354,367.5C 350.721,373.091 346.721,373.758 342,369.5C 341.333,350.167 341.333,330.833 342,311.5C 343.045,310.627 343.878,309.627 344.5,308.5 Z"/></g>
<g><path style="opacity:1" fill="#fd9000" d="M 289.5,320.5 C 307.627,319.127 315.794,327.46 314,345.5C 308.403,358.704 298.903,362.537 285.5,357C 276.558,348.848 274.724,339.348 280,328.5C 282.772,325.217 285.939,322.55 289.5,320.5 Z"/></g>
<g><path style="opacity:1" fill="#fd8f00" d="M 207.5,320.5 C 218.488,318.258 227.654,321.258 235,329.5C 240.555,343.549 236.388,353.383 222.5,359C 217.511,359.499 212.511,359.666 207.5,359.5C 207.5,346.5 207.5,333.5 207.5,320.5 Z"/></g>
</svg>
