<?xml version="1.0" encoding="UTF-8"?>
<!DOCTYPE svg PUBLIC "-//W3C//DTD SVG 1.1//EN" "http://www.w3.org/Graphics/SVG/1.1/DTD/svg11.dtd">
<svg xmlns="http://www.w3.org/2000/svg" version="1.1" width="512px" height="512px" style="shape-rendering:geometricPrecision; text-rendering:geometricPrecision; image-rendering:optimizeQuality; fill-rule:evenodd; clip-rule:evenodd" xmlns:xlink="http://www.w3.org/1999/xlink">
<g><path style="opacity:0.984" fill="#000101" d="M -0.5,326.5 C -0.5,278.5 -0.5,230.5 -0.5,182.5C 5.24886,166.924 16.2489,157.09 32.5,153C 41.1667,152.667 49.8333,152.333 58.5,152C 76.3001,118.738 100.967,91.738 132.5,71C 137.217,69.4252 141.55,70.2585 145.5,73.5C 146.931,77.9187 146.764,82.252 145,86.5C 119.196,103.469 98.3627,125.136 82.5,151.5C 81.9569,151.56 81.6236,151.893 81.5,152.5C 152.332,153.832 222.999,153.832 293.5,152.5C 284.005,124.657 293.005,105.49 320.5,95C 322.134,94.5065 323.801,94.3398 325.5,94.5C 341.837,94.6666 358.17,94.4999 374.5,94C 373.956,93.2828 373.289,92.7828 372.5,92.5C 322.442,57.912 267.442,46.912 207.5,59.5C 202.329,59.4201 198.662,57.0868 196.5,52.5C 195.875,46.5753 198.208,42.4086 203.5,40C 277.654,24.3722 343.654,40.7056 401.5,89C 421.458,107.109 437.791,127.942 450.5,151.5C 459.148,152.332 467.814,152.832 476.5,153C 494.333,157.5 505.5,168.667 510,186.5C 510.667,232.167 510.667,277.833 510,323.5C 504.65,341.516 492.817,352.682 474.5,357C 466.812,357.169 459.145,357.669 451.5,358.5C 413.367,428.095 354.701,467.595 275.5,477C 191.836,482.073 124.669,451.573 74,385.5C 67.8711,376.748 62.3711,367.581 57.5,358C 36.8509,361.06 19.6843,354.894 6,339.5C 3.25995,335.353 1.09328,331.02 -0.5,326.5 Z"/></g>
<g><path style="opacity:0.944" fill="#010103" d="M 178.5,57.5 C 180.028,68.4706 175.362,73.3039 164.5,72C 161.977,70.6403 159.977,68.807 158.5,66.5C 157.487,56.0116 162.154,51.5116 172.5,53C 175.146,53.8041 177.146,55.3041 178.5,57.5 Z"/></g>
<g><path style="opacity:0.999" fill="#569efe" d="M 196.5,52.5 C 198.662,57.0868 202.329,59.4201 207.5,59.5C 267.442,46.912 322.442,57.912 372.5,92.5C 356.833,93.1667 341.167,93.8333 325.5,94.5C 323.801,94.3398 322.134,94.5065 320.5,95C 293.005,105.49 284.005,124.657 293.5,152.5C 222.998,152.833 152.665,152.499 82.5,151.5C 98.3627,125.136 119.196,103.469 145,86.5C 146.764,82.252 146.931,77.9187 145.5,73.5C 150,71.4174 154.334,69.0841 158.5,66.5C 159.977,68.807 161.977,70.6403 164.5,72C 175.362,73.3039 180.028,68.4706 178.5,57.5C 184.374,55.4317 190.374,53.7651 196.5,52.5 Z"/></g>
<g><path style="opacity:1" fill="#4075bc" d="M 372.5,92.5 C 373.289,92.7828 373.956,93.2828 374.5,94C 358.17,94.4999 341.837,94.6666 325.5,94.5C 341.167,93.8333 356.833,93.1667 372.5,92.5 Z"/></g>
<g><path style="opacity:1" fill="#cae457" d="M 323.5,114.5 C 348.502,114.333 373.502,114.5 398.5,115C 409.693,126.186 419.359,138.52 427.5,152C 391.5,152.667 355.5,152.667 319.5,152C 310.853,146.072 307.686,137.905 310,127.5C 313.101,121.563 317.601,117.23 323.5,114.5 Z"/></g>
<g><path style="opacity:1" fill="#0c1522" d="M 82.5,151.5 C 152.665,152.499 222.998,152.833 293.5,152.5C 222.999,153.832 152.332,153.832 81.5,152.5C 81.6236,151.893 81.9569,151.56 82.5,151.5 Z"/></g>
<g><path style="opacity:1" fill="#fdbb59" d="M 345.5,347.5 C 338.833,347.5 332.167,347.5 325.5,347.5C 324.201,338.837 319.201,335.67 310.5,338C 307.108,340.285 305.441,343.452 305.5,347.5C 298.833,347.5 292.167,347.5 285.5,347.5C 285.135,343.263 283.135,340.096 279.5,338C 198.833,337.667 118.167,337.333 37.5,337C 28.4016,334.234 22.2349,328.401 19,319.5C 18.3333,276.5 18.3333,233.5 19,190.5C 21.5,181.333 27.3333,175.5 36.5,173C 181.167,172.333 325.833,172.333 470.5,173C 480.624,174.81 487.124,180.643 490,190.5C 490.667,233.5 490.667,276.5 490,319.5C 486.665,328.834 480.165,334.667 470.5,337C 430.5,337.333 390.5,337.667 350.5,338C 346.81,340.169 345.143,343.336 345.5,347.5 Z"/></g>
<g><path style="opacity:1" fill="#040201" d="M 388.5,195.5 C 398.462,194.37 402.962,198.703 402,208.5C 390.529,237.247 378.862,265.914 367,294.5C 363.319,297.36 359.152,298.193 354.5,297C 349.919,293.562 348.419,289.062 350,283.5C 361,256.167 372,228.833 383,201.5C 384.36,198.977 386.193,196.977 388.5,195.5 Z"/></g>
<g><path style="opacity:1" fill="#040301" d="M 74.5,204.5 C 74.1684,213.857 74.5017,223.19 75.5,232.5C 76.1067,232.376 76.44,232.043 76.5,231.5C 89.3207,223.863 101.154,225.196 112,235.5C 113.608,238.382 114.941,241.382 116,244.5C 116.667,259.167 116.667,273.833 116,288.5C 111.504,296.416 105.837,297.416 99,291.5C 97.7018,277.927 97.0351,264.261 97,250.5C 93.5405,243.188 88.0405,241.021 80.5,244C 78.6217,245.543 77.1217,247.376 76,249.5C 75.9649,263.261 75.2982,276.927 74,290.5C 67.8333,297.412 62.1667,297.079 57,289.5C 56.3333,260.833 56.3333,232.167 57,203.5C 60.8098,198.331 65.6431,197.165 71.5,200C 72.8825,201.271 73.8825,202.771 74.5,204.5 Z"/></g>
<g><path style="opacity:1" fill="#040301" d="M 432.5,197.5 C 441.335,197.499 445.501,201.832 445,210.5C 433.61,239.613 421.943,268.613 410,297.5C 402.682,302.511 397.016,301.178 393,293.5C 392.333,291.167 392.333,288.833 393,286.5C 404.333,258.5 415.667,230.5 427,202.5C 428.73,200.598 430.563,198.931 432.5,197.5 Z"/></g>
<g><path style="opacity:1" fill="#513c1d" d="M 74.5,204.5 C 75.1667,213.5 75.8333,222.5 76.5,231.5C 76.44,232.043 76.1067,232.376 75.5,232.5C 74.5017,223.19 74.1684,213.857 74.5,204.5 Z"/></g>
<g><path style="opacity:1" fill="#030201" d="M 161.5,244.5 C 159.167,244.5 156.833,244.5 154.5,244.5C 154.5,258.5 154.5,272.5 154.5,286.5C 153.82,292.011 150.654,295.011 145,295.5C 141.196,295.031 138.529,293.031 137,289.5C 136.5,274.504 136.333,259.504 136.5,244.5C 127.342,245.509 123.508,241.509 125,232.5C 127.819,228.507 131.653,226.84 136.5,227.5C 136.334,222.489 136.501,217.489 137,212.5C 142.541,205.9 148.208,205.9 154,212.5C 154.499,217.489 154.666,222.489 154.5,227.5C 165.434,226.584 169.6,231.251 167,241.5C 165.512,243.16 163.679,244.16 161.5,244.5 Z"/></g>
<g><path style="opacity:1" fill="#080502" d="M 192.5,207.5 C 197.948,206.975 202.115,208.975 205,213.5C 205.499,218.155 205.666,222.821 205.5,227.5C 217.811,226.942 221.478,232.109 216.5,243C 212.974,244.337 209.308,244.837 205.5,244.5C 205.667,258.837 205.5,273.171 205,287.5C 202.683,294.41 198.183,296.576 191.5,294C 189.19,292.363 187.69,290.196 187,287.5C 186.5,273.171 186.333,258.837 186.5,244.5C 179.885,245.387 175.885,242.554 174.5,236C 176.189,229.983 180.189,227.15 186.5,227.5C 186.334,222.821 186.501,218.155 187,213.5C 188.36,210.977 190.193,208.977 192.5,207.5 Z"/></g>
<g><path style="opacity:1" fill="#040201" d="M 235.5,226.5 C 240.704,226.011 245.037,227.677 248.5,231.5C 266.65,223.412 281.483,227.412 293,243.5C 300.149,260.711 296.315,274.878 281.5,286C 271.034,291.695 260.534,291.861 250,286.5C 249.667,295.833 249.333,305.167 249,314.5C 245.878,322.489 240.711,324.322 233.5,320C 232.299,319.097 231.465,317.931 231,316.5C 230.333,288.167 230.333,259.833 231,231.5C 232.025,229.313 233.525,227.646 235.5,226.5 Z"/></g>
<g><path style="opacity:1" fill="#090603" d="M 320.5,238.5 C 333.722,239.193 337.389,245.359 331.5,257C 325.239,260.915 319.739,260.082 315,254.5C 312.024,247.462 313.857,242.129 320.5,238.5 Z"/></g>
<g><path style="opacity:1" fill="#f8b857" d="M 260.5,244.5 C 268.556,243.296 274.389,246.296 278,253.5C 278.989,267.849 272.489,273.683 258.5,271C 250.634,265.771 248.8,258.938 253,250.5C 255.114,247.879 257.614,245.879 260.5,244.5 Z"/></g>
<g><path style="opacity:1" fill="#c99547" d="M 161.5,244.5 C 159.735,245.461 157.735,245.795 155.5,245.5C 155.829,259.344 155.496,273.01 154.5,286.5C 154.5,272.5 154.5,258.5 154.5,244.5C 156.833,244.5 159.167,244.5 161.5,244.5 Z"/></g>
<g><path style="opacity:1" fill="#090602" d="M 320.5,277.5 C 331.468,276.797 335.968,281.797 334,292.5C 330.153,298.388 324.987,299.888 318.5,297C 311.524,289.713 312.191,283.213 320.5,277.5 Z"/></g>
<g><path style="opacity:1" fill="#050403" d="M 325.5,347.5 C 323.558,355.476 318.558,358.309 310.5,356C 307.404,353.971 305.738,351.138 305.5,347.5C 305.441,343.452 307.108,340.285 310.5,338C 319.201,335.67 324.201,338.837 325.5,347.5 Z"/></g>
<g><path style="opacity:1" fill="#569efd" d="M 285.5,347.5 C 292.167,347.5 298.833,347.5 305.5,347.5C 305.738,351.138 307.404,353.971 310.5,356C 318.558,358.309 323.558,355.476 325.5,347.5C 332.167,347.5 338.833,347.5 345.5,347.5C 345.761,352.187 348.094,355.353 352.5,357C 377.833,357.333 403.167,357.667 428.5,358C 391.749,416.568 338.749,449.568 269.5,457C 220.086,460.246 175.419,447.412 135.5,418.5C 151.833,417.833 168.167,417.167 184.5,416.5C 206.309,411.852 217.976,398.352 219.5,376C 219.472,369.516 217.805,363.516 214.5,358C 235.5,357.667 256.5,357.333 277.5,357C 282.162,355.505 284.828,352.339 285.5,347.5 Z"/></g>
<g><path style="opacity:1" fill="#505b22" d="M 184.5,357.5 C 149.996,357.168 115.663,357.502 81.5,358.5C 80.9569,358.44 80.6236,358.107 80.5,357.5C 115.331,356.17 149.998,356.17 184.5,357.5 Z"/></g>
<g><path style="opacity:1" fill="#c8e256" d="M 184.5,357.5 C 198.952,363.758 202.786,374.091 196,388.5C 192.361,392.734 187.861,395.568 182.5,397C 158.493,397.833 134.493,397.666 110.5,396.5C 99.2752,384.952 89.6085,372.286 81.5,358.5C 115.663,357.502 149.996,357.168 184.5,357.5 Z"/></g>
<g><path style="opacity:1" fill="#2a4c7a" d="M 184.5,416.5 C 168.167,417.167 151.833,417.833 135.5,418.5C 134.957,418.44 134.624,418.107 134.5,417.5C 151.153,416.501 167.82,416.167 184.5,416.5 Z"/></g>
</svg>
