<?xml version="1.0" encoding="UTF-8"?>
<!DOCTYPE svg PUBLIC "-//W3C//DTD SVG 1.1//EN" "http://www.w3.org/Graphics/SVG/1.1/DTD/svg11.dtd">
<svg xmlns="http://www.w3.org/2000/svg" version="1.1" width="650px" height="430px" style="shape-rendering:geometricPrecision; text-rendering:geometricPrecision; image-rendering:optimizeQuality; fill-rule:evenodd; clip-rule:evenodd" xmlns:xlink="http://www.w3.org/1999/xlink">
<g><path style="opacity:0.99" fill="#ef9000" d="M 305.5,145.5 C 307.527,145.338 309.527,145.505 311.5,146C 313.359,149.246 315.025,152.579 316.5,156C 321.945,158.153 327.278,157.986 332.5,155.5C 334.039,152.254 335.706,149.088 337.5,146C 339.5,145.333 341.5,145.333 343.5,146C 344.919,149.163 344.585,152.163 342.5,155C 345.113,158.4 348.28,161.233 352,163.5C 355.209,169.114 356.209,175.114 355,181.5C 335.24,182.659 315.407,182.826 295.5,182C 292.709,175.714 293.209,169.548 297,163.5C 300.071,160.913 303.238,158.58 306.5,156.5C 304.372,152.954 304.039,149.288 305.5,145.5 Z"/></g>
<g><path style="opacity:0.992" fill="#ef9000" d="M 44.5,149.5 C 85.2521,149.012 125.919,149.512 166.5,151C 168.378,152.543 169.878,154.376 171,156.5C 171.5,183.831 171.667,211.165 171.5,238.5C 175.514,238.334 179.514,238.501 183.5,239C 184.931,239.465 186.097,240.299 187,241.5C 187.667,252.167 187.667,262.833 187,273.5C 186.215,275.286 185.049,276.786 183.5,278C 157.227,279.154 130.894,279.654 104.5,279.5C 79.1667,279.333 53.8333,279.167 28.5,279C 25.4173,278.214 23.2506,276.381 22,273.5C 21.3333,263.167 21.3333,252.833 22,242.5C 22.5,240.667 23.6667,239.5 25.5,239C 29.4862,238.501 33.4862,238.334 37.5,238.5C 37.3334,211.165 37.5,183.831 38,156.5C 39.6941,153.642 41.8607,151.309 44.5,149.5 Z M 62.5,175.5 C 72.333,175.028 81.9997,175.528 91.5,177C 91.0426,177.414 90.7093,177.914 90.5,178.5C 81.1667,179.833 71.8333,179.833 62.5,178.5C 61.2086,177.473 61.2086,176.473 62.5,175.5 Z M 63.5,191.5 C 91.1747,191.167 118.841,191.5 146.5,192.5C 147.668,193.906 147.335,195.072 145.5,196C 118.167,196.667 90.8333,196.667 63.5,196C 62.6195,195.292 61.9528,194.458 61.5,193.5C 62.5,193.167 63.1667,192.5 63.5,191.5 Z M 63.5,207.5 C 90.8354,207.333 118.169,207.5 145.5,208C 147.957,209.512 147.957,210.846 145.5,212C 118.167,212.667 90.8333,212.667 63.5,212C 61.0688,210.568 61.0688,209.068 63.5,207.5 Z M 35.5,252.5 C 81.5,252.5 127.5,252.5 173.5,252.5C 173.797,256.767 173.464,260.934 172.5,265C 127.167,265.667 81.8333,265.667 36.5,265C 35.5363,260.934 35.203,256.767 35.5,252.5 Z"/></g>
<g><path style="opacity:0.995" fill="#ef9000" d="M 473.5,153.5 C 490.578,150.907 504.245,156.407 514.5,170C 515.766,170.309 516.933,170.809 518,171.5C 523.065,168.443 527.565,164.61 531.5,160C 547.037,151.051 562.37,151.385 577.5,161C 585.596,168.025 590.43,176.858 592,187.5C 591.635,232.393 570.135,261.893 527.5,276C 517.087,277.535 507.087,276.202 497.5,272C 459.83,254.498 442.33,224.998 445,183.5C 448.945,168.059 458.445,158.059 473.5,153.5 Z M 550.5,168.5 C 568.422,169.248 577.088,178.415 576.5,196C 575.216,196.684 574.049,196.517 573,195.5C 572.111,181.443 564.611,173.777 550.5,172.5C 549.637,171.274 549.637,169.94 550.5,168.5 Z"/></g>
<g><path style="opacity:0.99" fill="#ef9000" d="M 264.5,172.5 C 266.827,172.247 268.827,172.914 270.5,174.5C 269.426,183.73 272.426,191.23 279.5,197C 280.448,197.483 281.448,197.649 282.5,197.5C 282.245,193.507 283.911,190.674 287.5,189C 298.5,188.333 309.5,188.333 320.5,189C 321.325,205.093 321.825,221.259 322,237.5C 323.667,238.833 325.333,238.833 327,237.5C 327.181,221.456 327.681,205.456 328.5,189.5C 339.819,188.334 351.152,188.168 362.5,189C 363.5,189.833 364.5,190.667 365.5,191.5C 365.912,193.887 366.912,195.887 368.5,197.5C 371.805,196.028 374.305,193.695 376,190.5C 377.797,185.339 378.797,180.005 379,174.5C 383.406,171.248 386.406,172.248 388,177.5C 389.186,192.635 382.686,202.802 368.5,208C 366.398,209.733 366.065,211.733 367.5,214C 375.167,214.333 382.833,214.667 390.5,215C 394.944,217.111 395.611,220.111 392.5,224C 384.147,224.168 375.813,224.668 367.5,225.5C 366.025,228.245 366.691,230.412 369.5,232C 385.025,238.383 390.691,249.716 386.5,266C 384.098,266.814 381.765,266.647 379.5,265.5C 380.123,255.249 376.289,247.249 368,241.5C 362.509,274.648 343.342,288.148 310.5,282C 293.058,274.701 283.391,261.535 281.5,242.5C 272.956,247.259 269.456,254.593 271,264.5C 268,267.167 265,267.167 262,264.5C 259.368,247.921 265.868,236.754 281.5,231C 282.833,229 282.833,227 281.5,225C 273.5,224.667 265.5,224.333 257.5,224C 255.543,221.879 255.043,219.379 256,216.5C 256.75,215.874 257.584,215.374 258.5,215C 266.493,214.5 274.493,214.334 282.5,214.5C 282.66,212.801 282.494,211.134 282,209.5C 277.916,206.874 273.75,204.374 269.5,202C 261.125,193.077 259.458,183.244 264.5,172.5 Z"/></g>
<g><path style="opacity:0.272" fill="#ee8f00" d="M 63.5,191.5 C 63.1667,192.5 62.5,193.167 61.5,193.5C 61.5,192.167 62.1667,191.5 63.5,191.5 Z"/></g>
</svg>
