<?xml version="1.0" encoding="UTF-8"?>
<!DOCTYPE svg PUBLIC "-//W3C//DTD SVG 1.1//EN" "http://www.w3.org/Graphics/SVG/1.1/DTD/svg11.dtd">
<svg xmlns="http://www.w3.org/2000/svg" version="1.1" width="512px" height="512px" style="shape-rendering:geometricPrecision; text-rendering:geometricPrecision; image-rendering:optimizeQuality; fill-rule:evenodd; clip-rule:evenodd" xmlns:xlink="http://www.w3.org/1999/xlink">
<g><path style="opacity:0.992" fill="#000000" d="M 385.5,7.5 C 436.643,3.81113 473.476,24.8111 496,70.5C 512.657,117.872 502.657,158.539 466,192.5C 459.875,200.085 456.541,208.752 456,218.5C 459.854,241.426 454.521,261.759 440,279.5C 439.667,311.833 439.333,344.167 439,376.5C 434.833,392.667 424.667,402.833 408.5,407C 373.835,407.5 339.168,407.667 304.5,407.5C 306.249,420.505 312.249,431.005 322.5,439C 359.64,433.809 374.474,449.642 367,486.5C 364.167,494.667 358.667,500.167 350.5,503C 265.833,503.667 181.167,503.667 96.5,503C 82.373,497.255 76.7063,486.755 79.5,471.5C 76.7063,456.245 82.373,445.745 96.5,440C 105.833,439.667 115.167,439.333 124.5,439C 134.751,431.005 140.751,420.505 142.5,407.5C 107.832,407.667 73.1651,407.5 38.5,407C 22.3333,402.833 12.1667,392.667 8,376.5C 7.33333,290.5 7.33333,204.5 8,118.5C 12.1667,102.333 22.3333,92.1667 38.5,88C 125.166,87.5 211.833,87.3333 298.5,87.5C 310.942,42.7861 339.942,16.1194 385.5,7.5 Z"/></g>
<g><path style="opacity:1" fill="#fde8a6" d="M 387.5,23.5 C 430.883,20.7806 462.049,38.7806 481,77.5C 492.947,111.006 487.947,141.672 466,169.5C 459.968,175.198 454.301,181.198 449,187.5C 443.751,195.746 440.584,204.746 439.5,214.5C 434.208,215.495 428.875,215.828 423.5,215.5C 423.5,183.5 423.5,151.5 423.5,119.5C 445.011,120.819 455.511,110.819 455,89.5C 448.202,73.8505 436.702,68.6839 420.5,74C 409.514,80.8131 405.18,90.6464 407.5,103.5C 402.167,103.5 396.833,103.5 391.5,103.5C 393.594,84.6015 385.26,73.9348 366.5,71.5C 350.168,74.3307 342.668,83.9974 344,100.5C 349.319,115.303 359.819,121.637 375.5,119.5C 375.5,151.5 375.5,183.5 375.5,215.5C 370.167,215.5 364.833,215.5 359.5,215.5C 358.951,206.592 356.451,198.259 352,190.5C 344.705,181.536 337.038,172.87 329,164.5C 301.1,119.759 306.267,79.2594 344.5,43C 357.425,33.2008 371.758,26.7008 387.5,23.5 Z"/></g>
<g><path style="opacity:1" fill="#f4d06c" d="M 364.5,87.5 C 368.192,86.9712 371.358,87.9712 374,90.5C 375.367,94.6996 375.867,99.0329 375.5,103.5C 371.818,103.665 368.152,103.499 364.5,103C 360.139,100.774 358.639,97.2742 360,92.5C 361.025,90.313 362.525,88.6464 364.5,87.5 Z"/></g>
<g><path style="opacity:1" fill="#f4d06c" d="M 428.5,87.5 C 436.658,86.8229 440.158,90.4895 439,98.5C 438.167,100.667 436.667,102.167 434.5,103C 430.848,103.499 427.182,103.665 423.5,103.5C 423.335,99.8183 423.501,96.1516 424,92.5C 425.025,90.313 426.525,88.6464 428.5,87.5 Z"/></g>
<g><path style="opacity:1" fill="#68d5f3" d="M 41.5,103.5 C 126.167,103.5 210.833,103.5 295.5,103.5C 295.5,108.833 295.5,114.167 295.5,119.5C 213.833,119.333 132.166,119.5 50.5,120C 45.6667,122.167 42.1667,125.667 40,130.5C 39.0102,198.557 39.3436,266.557 41,334.5C 43.2215,338.388 46.3882,341.221 50.5,343C 165.5,343.667 280.5,343.667 395.5,343C 401.333,341.167 405.167,337.333 407,331.5C 407.5,319.171 407.667,306.838 407.5,294.5C 412.903,293.483 418.236,292.149 423.5,290.5C 423.667,318.169 423.5,345.835 423,373.5C 419.74,382.427 413.573,388.261 404.5,391C 282.444,391.994 160.444,391.661 38.5,390C 31.522,386.357 26.6887,380.857 24,373.5C 23.3333,289.5 23.3333,205.5 24,121.5C 27.3531,112.982 33.1865,106.982 41.5,103.5 Z"/></g>
<g><path style="opacity:1" fill="#feeaa6" d="M 391.5,119.5 C 396.833,119.5 402.167,119.5 407.5,119.5C 407.5,151.5 407.5,183.5 407.5,215.5C 402.167,215.5 396.833,215.5 391.5,215.5C 391.5,183.5 391.5,151.5 391.5,119.5 Z"/></g>
<g><path style="opacity:1" fill="#fe816d" d="M 55.5,135.5 C 136.501,135.333 217.501,135.5 298.5,136C 303.017,154.04 311.684,169.707 324.5,183C 234.834,183.5 145.167,183.667 55.5,183.5C 55.5,167.5 55.5,151.5 55.5,135.5 Z"/></g>
<g><path style="opacity:1" fill="#000000" d="M 71.5,151.5 C 76.8333,151.5 82.1667,151.5 87.5,151.5C 87.5,156.833 87.5,162.167 87.5,167.5C 82.1667,167.5 76.8333,167.5 71.5,167.5C 71.5,162.167 71.5,156.833 71.5,151.5 Z"/></g>
<g><path style="opacity:1" fill="#000000" d="M 103.5,151.5 C 108.833,151.5 114.167,151.5 119.5,151.5C 119.5,156.833 119.5,162.167 119.5,167.5C 114.167,167.5 108.833,167.5 103.5,167.5C 103.5,162.167 103.5,156.833 103.5,151.5 Z"/></g>
<g><path style="opacity:1" fill="#000000" d="M 135.5,151.5 C 140.833,151.5 146.167,151.5 151.5,151.5C 151.5,156.833 151.5,162.167 151.5,167.5C 146.167,167.5 140.833,167.5 135.5,167.5C 135.5,162.167 135.5,156.833 135.5,151.5 Z"/></g>
<g><path style="opacity:1" fill="#e5e8ec" d="M 55.5,199.5 C 149.834,199.333 244.167,199.5 338.5,200C 340.686,203.205 342.186,206.705 343,210.5C 343.115,224.207 343.782,237.874 345,251.5C 351.345,275.753 366.845,290.086 391.5,294.5C 391.5,305.5 391.5,316.5 391.5,327.5C 279.5,327.5 167.5,327.5 55.5,327.5C 55.5,284.833 55.5,242.167 55.5,199.5 Z"/></g>
<g><path style="opacity:1" fill="#000000" d="M 71.5,215.5 C 114.167,215.5 156.833,215.5 199.5,215.5C 199.5,247.5 199.5,279.5 199.5,311.5C 156.833,311.5 114.167,311.5 71.5,311.5C 71.5,279.5 71.5,247.5 71.5,215.5 Z"/></g>
<g><path style="opacity:1" fill="#000000" d="M 215.5,215.5 C 220.833,215.5 226.167,215.5 231.5,215.5C 231.5,220.833 231.5,226.167 231.5,231.5C 226.167,231.5 220.833,231.5 215.5,231.5C 215.5,226.167 215.5,220.833 215.5,215.5 Z"/></g>
<g><path style="opacity:1" fill="#000000" d="M 247.5,215.5 C 274.167,215.5 300.833,215.5 327.5,215.5C 327.5,220.833 327.5,226.167 327.5,231.5C 300.833,231.5 274.167,231.5 247.5,231.5C 247.5,226.167 247.5,220.833 247.5,215.5 Z"/></g>
<g><path style="opacity:1" fill="#5cd6b2" d="M 87.5,231.5 C 119.5,231.5 151.5,231.5 183.5,231.5C 183.5,252.833 183.5,274.167 183.5,295.5C 151.5,295.5 119.5,295.5 87.5,295.5C 87.5,274.167 87.5,252.833 87.5,231.5 Z"/></g>
<g><path style="opacity:1" fill="#a9b1bc" d="M 359.5,231.5 C 386.167,231.5 412.833,231.5 439.5,231.5C 440.78,260.712 426.947,276.712 398,279.5C 370.692,275.256 357.859,259.256 359.5,231.5 Z"/></g>
<g><path style="opacity:1" fill="#000000" d="M 215.5,247.5 C 252.833,247.5 290.167,247.5 327.5,247.5C 327.5,252.833 327.5,258.167 327.5,263.5C 290.167,263.5 252.833,263.5 215.5,263.5C 215.5,258.167 215.5,252.833 215.5,247.5 Z"/></g>
<g><path style="opacity:1" fill="#000000" d="M 215.5,279.5 C 252.833,279.5 290.167,279.5 327.5,279.5C 327.5,284.833 327.5,290.167 327.5,295.5C 290.167,295.5 252.833,295.5 215.5,295.5C 215.5,290.167 215.5,284.833 215.5,279.5 Z"/></g>
<g><path style="opacity:1" fill="#000000" d="M 311.5,359.5 C 316.833,359.5 322.167,359.5 327.5,359.5C 327.5,364.833 327.5,370.167 327.5,375.5C 322.167,375.5 316.833,375.5 311.5,375.5C 311.5,370.167 311.5,364.833 311.5,359.5 Z"/></g>
<g><path style="opacity:1" fill="#000000" d="M 343.5,359.5 C 348.833,359.5 354.167,359.5 359.5,359.5C 359.5,364.833 359.5,370.167 359.5,375.5C 354.167,375.5 348.833,375.5 343.5,375.5C 343.5,370.167 343.5,364.833 343.5,359.5 Z"/></g>
<g><path style="opacity:1" fill="#000000" d="M 375.5,359.5 C 380.833,359.5 386.167,359.5 391.5,359.5C 391.5,364.833 391.5,370.167 391.5,375.5C 386.167,375.5 380.833,375.5 375.5,375.5C 375.5,370.167 375.5,364.833 375.5,359.5 Z"/></g>
<g><path style="opacity:1" fill="#a9b1bc" d="M 158.5,407.5 C 201.833,407.5 245.167,407.5 288.5,407.5C 288.885,419.155 292.551,429.655 299.5,439C 248.833,439.667 198.167,439.667 147.5,439C 154.449,429.655 158.115,419.155 158.5,407.5 Z"/></g>
<g><path style="opacity:1" fill="#959ea9" d="M 100.5,455.5 C 182.501,455.333 264.501,455.5 346.5,456C 348.667,456.833 350.167,458.333 351,460.5C 351.667,467.833 351.667,475.167 351,482.5C 350.167,484.667 348.667,486.167 346.5,487C 264.5,487.667 182.5,487.667 100.5,487C 98.3333,486.167 96.8333,484.667 96,482.5C 95.3333,475.167 95.3333,467.833 96,460.5C 97.025,458.313 98.525,456.646 100.5,455.5 Z"/></g>
</svg>
